<?xml version="1.0" encoding="UTF-8"?>
<svg width="40px" height="40px" viewBox="0 0 40 40" version="1.1" xmlns="http://www.w3.org/2000/svg" xmlns:xlink="http://www.w3.org/1999/xlink">
    <title>di-logo</title>
    <g id="di-logo" stroke="none" stroke-width="1" fill="none" fillRule="evenodd">
        <circle id="Circle" fill="#D63735" cx="20" cy="19.97547" r="20"></circle>
        <path d="M22,-0.524530032 L22,30.47547 L22,30.47547 L19,30.47547 L19.0002993,28.4129946 C17.697841,29.7088933 16.0071867,30.47547 14,30.47547 C9.02943725,30.47547 5,25.7744598 5,19.97547 C5,14.1764801 9.02943725,9.47546997 14,9.47546997 C16.0071867,9.47546997 17.697841,10.2420466 19.0002993,11.5379454 L19,-0.524530032 L22,-0.524530032 Z M14,12.47547 C10.7977484,12.47547 8,15.7395097 8,19.97547 C8,24.2114302 10.7977484,27.47547 14,27.47547 C16.0349728,27.47547 17.9065921,26.1573293 19.0006766,24.1092774 L19.0006766,15.8416625 C17.9065921,13.7936106 16.0349728,12.47547 14,12.47547 Z" id="D" fill="#FFFFFF"></path>
        <path d="M27,12.47547 L27,40.47547 L24,40.47547 L24,12.47547 L27,12.47547 Z M27,8.47546997 L27,11.47547 L24,11.47547 L24,8.47546997 L27,8.47546997 Z" id="I" fill="#FFFFFF"></path>
    </g>
</svg>