<svg xmlns="http://www.w3.org/2000/svg" width="338" height="420" viewBox="0 0 338 420">
  <g fill="none" fill-rule="evenodd" transform="rotate(90 169 169)">
    <rect width="15" height="30" x="314" y="277.001" fill="#EF4F47"/>
    <rect width="223" height="47" x="143" y="280.128" stroke="#002885" stroke-width="20" rx="9.815"/>
    <rect width="15" height="30" x="172" y="277.001" fill="#002885"/>
    <rect width="15" height="30" x="208" y="277.001" fill="#002885"/>
    <rect width="15" height="30" x="243" y="277.001" fill="#002885"/>
    <rect width="15" height="30" x="279" y="277.001" fill="#002885"/>
    <circle cx="44.699" cy="276.302" r="9.699" fill="#EF4F47" transform="rotate(-90 44.7 276.302)"/>
    <circle cx="44.699" cy="251.302" r="9.699" fill="#002885" transform="rotate(-90 44.7 251.302)"/>
    <circle cx="44.699" cy="226.302" r="9.699" fill="#002885" transform="rotate(-90 44.7 226.302)"/>
    <path fill="#002885" fill-rule="nonzero" d="M355.999953,246.001146 L356.000047,369.001146 C356.000047,377.837702 348.836603,385.001146 340.000047,385.001146 L80.0000473,385.001146 C71.1634913,385.001146 64.0000473,377.837702 64.0000473,369.001146 L63.9999527,350.001146 L83.9999527,350.001146 L84.0000473,365.001146 L336.000047,365.001146 L335.999953,246.001146 L355.999953,246.001146 Z M340.000047,-34.9988543 C348.836603,-34.9988543 356.000047,-27.8354103 356.000047,-18.9988543 L355.999953,69.0011457 L335.999953,69.0011457 L336.000047,-14.9988543 L84.0000473,-14.9988543 L83.9999527,87.0011457 L63.9999527,87.0011457 L64.0000473,-18.9988543 C64.0000473,-27.8354103 71.1634913,-34.9988543 80.0000473,-34.9988543 L340.000047,-34.9988543 Z" transform="rotate(-90 210 175.001)"/>
    <rect width="275" height="12" x="-62.5" y="172.501" fill="#002885" transform="rotate(-90 75 178.501)"/>
    <polyline stroke="#EF4F47" stroke-width="20" points="98.925 135.131 150.886 111.432 203.501 139.926 266.958 101.076 321.925 137.601" transform="rotate(-90 210.425 120.501)"/>
    <rect width="222" height="132" x="80" y="55.001" stroke="#002885" stroke-width="20" rx="6.282" transform="rotate(-90 191 121.001)"/>
    <circle cx="169" cy="137.001" r="16" stroke="#EF4F47" stroke-width="20" transform="rotate(-90 169 137.001)"/>
    <line x1="265.198" x2="337.99" y1="195.527" y2="195.527" stroke="#002885" stroke-linecap="round" stroke-width="20" transform="rotate(-90 301.697 195.527)"/>
    <line x1="267.953" x2="413.696" y1="159.282" y2="159.282" stroke="#002885" stroke-linecap="round" stroke-width="20" transform="rotate(-90 340.697 159.282)"/>
  </g>
</svg>
