<svg width="1474" height="394" viewBox="0 0 1474 394" xmlns="http://www.w3.org/2000/svg"><path d="M1465.93275,67.9449858 C1460.73275,62.0449858 1453.73275,59.1449858 1444.43275,59.1449858 C1435.13275,59.1449858 1427.83275,62.2449858 1422.73275,68.7449858 C1417.73275,75.0449858 1415.13275,84.4449858 1415.13275,96.5449858 L1415.13275,185.344986 C1403.53275,172.844986 1391.53275,163.944986 1379.23275,157.944986 C1371.63275,154.244986 1362.63275,151.544986 1352.53275,150.244986 C1346.63275,149.544986 1340.73275,149.144986 1334.13275,149.144986 C1303.53275,149.144986 1278.73275,159.644986 1259.73275,180.844986 C1240.93275,201.844986 1231.53275,231.144986 1231.53275,268.644986 C1231.53275,286.344986 1233.93275,302.944986 1238.73275,318.144986 C1243.53275,333.244986 1250.33275,346.544986 1259.53275,357.944986 C1268.73275,369.144986 1279.83275,377.844986 1292.33275,384.144986 C1304.83275,390.244986 1318.53275,393.344986 1333.43275,393.344986 C1340.23275,393.344986 1346.73275,392.744986 1352.63275,391.644986 C1356.73275,391.044986 1360.33275,389.944986 1364.23275,388.844986 C1373.63275,385.744986 1382.43275,381.244986 1390.43275,375.544986 C1398.73275,369.644986 1406.83275,362.144986 1415.13275,352.844986 L1415.13275,358.744986 C1415.13275,369.844986 1417.93275,378.244986 1423.43275,384.344986 C1429.13275,390.244986 1436.13275,393.344986 1444.43275,393.344986 C1453.13275,393.344986 1460.13275,390.444986 1465.43275,384.844986 C1470.73275,378.944986 1473.73275,370.444986 1473.73275,358.844986 L1473.73275,93.3449858 C1473.43275,82.3449858 1470.93275,73.6449858 1465.93275,67.9449858 Z M1403.63275,313.044986 C1398.33275,324.244986 1390.93275,332.744986 1382.23275,338.244986 C1373.23275,343.744986 1363.43275,346.344986 1352.53275,346.344986 L1352.33275,346.344986 C1341.43275,346.344986 1331.73275,343.444986 1322.63275,337.844986 C1313.63275,331.944986 1306.43275,323.444986 1301.23275,312.044986 C1296.03275,300.644986 1293.53275,286.644986 1293.53275,270.444986 C1293.53275,254.944986 1295.93275,241.344986 1300.93275,229.944986 C1305.73275,218.344986 1312.73275,209.344986 1321.53275,203.044986 C1330.53275,196.644986 1340.53275,193.644986 1351.93275,193.644986 L1352.53275,193.644986 C1363.23275,193.644986 1372.93275,196.744986 1382.03275,202.844986 C1391.03275,208.944986 1398.23275,217.744986 1403.53275,229.144986 C1408.83275,240.544986 1411.43275,254.544986 1411.43275,270.444986 C1411.63275,287.444986 1409.03275,301.644986 1403.63275,313.044986 Z M1209.23275,315.644986 C1205.33275,312.344986 1200.23275,310.644986 1193.73275,310.644986 C1187.83275,310.644986 1183.63275,312.144986 1180.33275,314.544986 C1172.63275,321.544986 1166.33275,327.244986 1161.53275,331.344986 C1156.73275,335.244986 1151.43275,339.044986 1145.53275,342.744986 C1140.03275,346.244986 1133.93275,349.044986 1127.83275,350.444986 C1121.53275,352.144986 1114.93275,353.044986 1107.53275,353.044986 C1105.83275,353.044986 1104.43275,353.044986 1102.93275,352.844986 C1093.73275,352.244986 1085.03275,349.744986 1077.33275,345.144986 C1068.13275,339.844986 1060.93275,332.044986 1055.23275,321.944986 C1049.93275,311.444986 1046.93275,299.244986 1046.73275,285.644986 L1167.73275,285.644986 C1183.93275,285.644986 1196.43275,283.244986 1205.33275,279.044986 C1214.33275,274.444986 1218.73275,264.644986 1218.73275,249.544986 C1218.73275,233.144986 1214.33275,217.144986 1205.63275,201.444986 C1196.93275,185.744986 1184.23275,172.944986 1166.73275,163.144986 C1149.43275,153.244986 1128.83275,148.444986 1104.63275,148.444986 L1102.83275,148.444986 C1084.93275,148.644986 1068.53275,151.544986 1054.03275,157.144986 C1038.73275,163.044986 1026.03275,171.344986 1015.33275,182.044986 C1005.23275,192.944986 997.13275,205.944986 991.73275,221.244986 C986.33275,236.544986 983.43275,253.144986 983.43275,270.744986 C983.43275,308.544986 994.53275,338.144986 1016.43275,360.244986 C1037.23275,381.044986 1065.93275,392.144986 1102.63275,393.244986 C1104.63275,393.444986 1106.83275,393.444986 1109.03275,393.444986 C1126.13275,393.444986 1141.63275,391.244986 1155.03275,386.844986 C1168.43275,382.444986 1179.53275,376.944986 1188.33275,370.244986 C1197.13275,363.444986 1203.83275,356.444986 1208.03275,349.244986 C1212.43275,342.044986 1214.63275,335.644986 1214.63275,330.244986 C1215.23275,323.744986 1213.23275,318.844986 1209.23275,315.644986 Z M1065.13275,205.544986 C1074.93275,195.244986 1087.63275,190.044986 1103.03275,190.044986 L1103.23275,190.044986 C1119.23275,190.044986 1132.33275,195.044986 1142.13275,205.144986 C1151.93275,215.244986 1157.83275,230.744986 1159.03275,251.344986 L1047.03275,251.344986 C1049.13275,231.144986 1055.03275,215.844986 1065.13275,205.544986 Z M946.43275,310.544986 C940.33275,310.544986 936.13275,312.044986 932.83275,314.444986 C925.23275,321.444986 918.83275,327.144986 914.03275,331.244986 C909.23275,335.144986 904.13275,338.944986 898.23275,342.644986 C892.53275,346.144986 886.63275,348.944986 880.33275,350.344986 C874.23275,352.044986 867.43275,352.944986 860.03275,352.944986 C858.33275,352.944986 856.93275,352.944986 855.43275,352.744986 C846.23275,352.144986 837.53275,349.644986 829.83275,345.044986 C820.83275,339.744986 813.43275,331.944986 808.13275,321.844986 C802.43275,311.344986 799.63275,299.144986 799.43275,285.544986 L920.23275,285.544986 C936.23275,285.544986 948.73275,283.144986 957.83275,278.944986 C966.63275,274.344986 971.13275,264.544986 971.13275,249.444986 C971.13275,233.044986 966.93275,217.044986 958.23275,201.344986 C949.53275,185.644986 936.73275,172.844986 919.33275,163.044986 C902.03275,153.144986 881.23275,148.344986 857.23275,148.344986 L855.23275,148.344986 C837.33275,148.544986 821.13275,151.444986 806.43275,157.044986 C791.13275,162.944986 778.43275,171.244986 767.93275,181.944986 C757.63275,192.844986 749.53275,205.844986 744.13275,221.144986 C738.63275,236.444986 735.83275,253.044986 735.83275,270.644986 C735.83275,308.444986 747.03275,338.044986 769.03275,360.144986 C789.83275,380.944986 818.43275,392.044986 855.03275,393.144986 C857.23275,393.344986 859.23275,393.344986 861.43275,393.344986 C878.73275,393.344986 894.03275,391.144986 907.43275,386.744986 C920.83275,382.344986 931.93275,376.844986 940.63275,370.144986 C949.63275,363.344986 956.13275,356.344986 960.53275,349.144986 C964.93275,341.944986 967.13275,335.544986 967.13275,330.144986 C967.13275,324.044986 965.13275,319.244986 961.23275,315.944986 C957.83275,312.144986 952.43275,310.544986 946.43275,310.544986 Z M817.43275,205.544986 C827.23275,195.244986 839.93275,190.044986 855.33275,190.044986 L855.53275,190.044986 C871.53275,190.044986 884.63275,195.044986 894.43275,205.144986 C904.33275,215.244986 910.13275,230.744986 911.53275,251.344986 L799.43275,251.344986 C801.63275,231.144986 807.73275,215.844986 817.43275,205.544986 Z M128.63275,353.044986 L128.63275,209.544986 C132.83275,209.944986 136.93275,210.144986 140.93275,210.144986 C161.03275,210.144986 179.83275,204.844986 195.83275,195.644986 L195.83275,353.144986 C195.83275,366.544986 192.73275,376.544986 186.43275,383.144986 C180.13275,389.744986 172.03275,393.044986 161.93275,393.044986 C152.13275,393.044986 144.23275,389.744986 138.03275,382.944986 C132.03275,376.044986 128.63275,366.344986 128.63275,353.044986 Z M710.33275,67.9449858 C705.13275,62.0449858 698.03275,59.1449858 688.93275,59.1449858 C679.53275,59.1449858 672.33275,62.2449858 667.23275,68.7449858 C662.03275,75.0449858 659.63275,84.4449858 659.63275,96.5449858 L659.63275,185.344986 C648.03275,172.844986 636.03275,163.944986 623.73275,157.944986 C616.03275,154.244986 607.13275,151.544986 597.23275,150.244986 C591.53275,149.544986 585.43275,149.144986 578.83275,149.144986 C548.23275,149.144986 523.23275,159.644986 504.43275,180.844986 C485.63275,201.844986 476.23275,231.144986 476.23275,268.644986 C476.23275,286.344986 478.63275,302.944986 483.23275,318.144986 C488.03275,333.244986 495.03275,346.544986 504.23275,357.944986 C513.43275,369.144986 524.53275,377.844986 537.03275,384.144986 C549.73275,390.244986 563.23275,393.344986 578.13275,393.344986 C584.73275,393.344986 591.23275,392.744986 597.33275,391.644986 C601.43275,391.044986 605.03275,389.944986 608.93275,388.844986 C618.33275,385.744986 627.13275,381.244986 635.13275,375.544986 C643.43275,369.644986 651.33275,362.144986 659.83275,352.844986 L659.83275,358.744986 C659.83275,369.844986 662.63275,378.244986 668.13275,384.344986 C673.43275,390.244986 680.83275,393.344986 689.13275,393.344986 C697.43275,393.344986 704.63275,390.444986 709.93275,384.844986 C715.23275,378.944986 717.83275,370.444986 717.83275,358.844986 L717.83275,93.3449858 C717.63275,82.3449858 715.23275,73.6449858 710.33275,67.9449858 Z M648.23275,313.044986 C642.93275,324.244986 635.53275,332.744986 626.73275,338.244986 C617.93275,343.744986 607.93275,346.344986 597.23275,346.344986 L597.03275,346.344986 C586.13275,346.344986 576.43275,343.444986 567.33275,337.844986 C558.13275,331.944986 551.13275,323.444986 545.93275,312.044986 C540.73275,300.644986 538.23275,286.644986 538.23275,270.444986 C538.23275,254.944986 540.63275,241.344986 545.43275,229.944986 C550.43275,218.344986 557.23275,209.344986 566.23275,203.044986 C575.03275,196.644986 585.23275,193.644986 596.43275,193.644986 L597.13275,193.644986 C607.83275,193.644986 617.53275,196.744986 626.43275,202.844986 C635.63275,208.944986 642.83275,217.744986 648.13275,229.144986 C653.33275,240.544986 656.03275,254.544986 656.03275,270.444986 C656.13275,287.444986 653.33275,301.644986 648.23275,313.044986 Z M294.63275,181.744986 L294.63275,189.144986 C305.73275,175.144986 317.43275,165.044986 330.13275,158.344986 C343.23275,151.944986 357.93275,148.544986 374.73275,148.544986 C390.93275,148.544986 405.53275,152.044986 418.33275,158.844986 C431.23275,165.644986 440.63275,175.444986 446.83275,188.144986 C451.03275,195.544986 453.63275,203.644986 454.73275,212.044986 C455.83275,220.344986 456.53275,231.344986 456.53275,244.644986 L456.53275,356.244986 C456.53275,368.444986 453.63275,377.444986 447.83275,383.544986 C442.33275,389.844986 434.73275,392.944986 425.73275,392.944986 C416.53275,392.944986 409.13275,389.844986 403.23275,383.344986 C397.33275,377.044986 394.53275,368.044986 394.53275,356.244986 L394.53275,256.244986 C394.53275,236.344986 391.73275,221.244986 386.03275,210.744986 C380.53275,200.244986 369.13275,194.944986 352.13275,194.944986 C341.03275,194.944986 331.13275,198.244986 322.13275,204.544986 C313.13275,210.944986 306.33275,219.644986 302.03275,231.044986 C299.13275,240.044986 297.63275,256.644986 297.63275,281.344986 L297.63275,356.344986 C297.63275,368.644986 294.73275,377.544986 288.83275,383.744986 C282.93275,389.844986 275.53275,392.944986 266.33275,392.944986 C257.33275,392.944986 250.13275,389.844986 244.23275,383.344986 C238.33275,377.044986 235.53275,368.044986 235.53275,356.244986 L235.53275,182.744986 C235.53275,171.344986 238.13275,162.644986 243.23275,157.144986 C248.23275,151.444986 255.23275,148.444986 264.23275,148.444986 C269.53275,148.444986 274.33275,149.544986 278.73275,152.144986 C283.13275,154.744986 286.63275,158.444986 289.43275,163.344986 C293.53275,168.744986 294.63275,174.744986 294.63275,181.744986 Z M129.03275,9.24498578 C170.63275,-5.35501422 218.23275,-4.55501422 253.73275,25.4449858 C260.33275,31.5449858 267.93275,39.0449858 270.83275,48.1449858 C274.53275,59.3449858 258.33275,47.0449858 255.93275,45.3449858 C244.33275,37.9449858 232.73275,31.7449858 219.63275,27.4449858 C149.63275,6.44498578 83.33275,44.3449858 42.13275,103.544986 C25.23275,129.544986 13.93275,156.944986 4.73275,187.144986 C3.83275,190.444986 2.93275,194.744986 1.03275,197.644986 C-0.76725,200.944986 0.33275,188.844986 0.33275,188.244986 C1.83275,175.744986 4.43275,163.744986 7.53275,151.644986 C26.63275,87.4449858 68.63275,33.8449858 129.03275,9.24498578 Z M209.73275,124.844986 C209.73275,152.144986 187.63275,174.344986 160.33275,174.344986 C133.03275,174.344986 110.93275,152.244986 110.93275,124.844986 C110.93275,97.4449858 133.03275,75.3449858 160.33275,75.3449858 C187.63275,75.3449858 209.73275,97.4449858 209.73275,124.844986 Z" fill="#003A9B" fill-rule="evenodd"/></svg>