<svg width="208" height="188" viewBox="0 0 208 188" xmlns="http://www.w3.org/2000/svg"><path d="M83.230562,188 L83.230562,97.8068536 L44.5696094,97.8068536 C44.5696094,83.3603323 47.3032121,71.1588785 52.7704175,61.2024922 C58.237623,51.2461059 68.3910044,43.7300104 83.230562,38.6542056 L83.230562,0 C71.1246072,1.56178609 59.8973103,5.17341641 49.5486715,10.834891 C39.2000327,16.4963655 30.3158238,23.6220145 22.8960451,32.211838 C15.4762663,40.8016615 9.71617485,50.7580478 5.61577078,62.0809969 C1.51536672,73.403946 -0.339577976,85.5077882 0.0509366965,98.3925234 L0.0509366965,188 L83.230562,188 Z M208,188 L208,97.8068536 L169.339047,97.8068536 C169.339047,83.3603323 172.07265,71.1588785 177.539856,61.2024922 C183.007061,51.2461059 193.160442,43.7300104 208,38.6542056 L208,0 C195.894045,1.56178609 184.666748,5.17341641 174.318109,10.834891 C163.969471,16.4963655 155.085262,23.6220145 147.665483,32.211838 C140.245704,40.8016615 134.485613,50.7580478 130.385209,62.0809969 C126.284805,73.403946 124.42986,85.5077882 124.820375,98.3925234 L124.820375,188 L208,188 Z" fill="#B68F00"/></svg>