<svg xmlns="http://www.w3.org/2000/svg" width="85" height="22" viewBox="0 0 85 22"><path fill="#0836E9" d="M82.278008,6.99817214 C81.0540354,5.76393367 79.3889268,5.072152 77.6536508,5.07692308 C75.188062,5.07692308 73.0384023,6.45364914 71.9252199,8.48117958 C71.6270179,7.93705764 71.2538867,7.43781354 70.8168316,6.99817214 C69.5930973,5.76387069 67.928106,5.07206601 66.1929538,5.07692308 C64.2273862,5.07692308 62.4665254,5.95530476 61.2670498,7.33681542 L61.2670498,5.75327326 L59.6586402,5.75327326 L59.6586402,11.5578308 C59.6576814,11.5852493 59.6538462,11.6102628 59.6538462,11.6376813 L59.6586402,11.6376813 L59.6586402,21.1538462 L61.2670498,21.1538462 L61.2670498,11.5549446 C61.2834793,10.271346 61.8004714,9.04529635 62.7071875,8.13965014 C63.6295205,7.2088044 64.8847759,6.68705902 66.1929538,6.69079564 C67.5094046,6.69079564 68.7481916,7.20549495 69.67872,8.13965014 C70.5854361,9.04529635 71.1024283,10.271346 71.1188578,11.5549446 L71.1188578,11.5578308 C71.1188578,11.5852493 71.1150226,11.6102628 71.1150226,11.6376813 L71.1188578,11.6376813 L71.1188578,21.1538462 L72.7272673,21.1538462 L72.7272673,11.6376813 L72.7311026,11.6376813 C72.7311026,11.6093007 72.7282262,11.5823632 72.7272673,11.5549446 C72.7441557,10.2714425 73.2610775,9.04555956 74.1674051,8.13965014 C75.0899506,7.20912247 76.3450675,6.68743465 77.6531714,6.69079564 C78.970581,6.69079564 80.2084092,7.20549495 81.1398964,8.13965014 C82.0460516,9.04567635 82.5629422,10.2714854 82.5800342,11.5549446 L82.5800342,21.1538462 L84.1884437,21.1538462 L84.1884437,12.4448453 C84.1923077,12.4448453 84.1923077,11.6376813 84.1923077,11.6376813 C84.1974326,9.896701 83.5081108,8.22603132 82.278008,6.99817214 L82.278008,6.99817214 Z M37.2307692,0 L37.2307692,21.1538462 L38.9230769,21.1538462 L38.9230769,0 L37.2307692,0 Z M49.3942477,4.86538462 C51.6825826,4.86538462 53.8346383,5.75671399 55.4521713,7.37468627 C57.0706674,8.99265855 57.9615385,11.144658 57.9615385,13.4329331 C57.9615385,15.7212082 57.0706674,17.8732076 55.4521713,19.4906983 C53.8346383,21.1091522 51.6825826,22 49.3942477,22 C47.1059129,22 44.9538572,21.1091522 43.3363242,19.4906983 C41.724171,17.8877468 40.8205397,15.7063259 40.8269231,13.4329331 C40.8264755,8.70903186 44.6697416,4.86538462 49.3942477,4.86538462 L49.3942477,4.86538462 Z M49.394707,6.55769231 C47.5589291,6.55769231 45.8326789,7.27252551 44.53311,8.57165879 C43.2344936,9.87031585 42.5192308,11.5970964 42.5192308,13.4329317 C42.5192308,15.268767 43.2344936,16.9950713 44.53311,18.2937284 C45.8198429,19.5871113 47.5703181,20.3122549 49.394707,20.3076923 C53.1857907,20.3076923 56.2692308,17.2241341 56.2692308,13.4329317 C56.2692308,11.5970964 55.5549203,9.87031585 54.2563039,8.57165879 C52.9697217,7.27805111 51.2191483,6.5528668 49.394707,6.55769231 L49.394707,6.55769231 Z M15.2307692,0 L15.2307692,21.1538462 L16.9230769,21.1538462 L16.9230769,0 L15.2307692,0 Z M19.6730769,13.4329182 C19.6681083,11.6085294 20.39423,9.85799524 21.689562,8.57163774 C22.9893654,7.27297867 24.7183041,6.55769231 26.5569108,6.55769231 C28.3955175,6.55769231 30.1244563,7.27250245 31.4242597,8.57163774 C32.6303275,9.77257999 33.3432708,11.3804778 33.4230769,13.079561 L33.4230769,13.7724649 C33.2442705,17.4046148 30.2379388,20.3076923 26.5569108,20.3076923 C24.7302656,20.3125496 22.9775857,19.5873495 21.689562,18.2937224 C20.3942576,17.0075414 19.6681293,15.257163 19.6730769,13.4329182 L19.6730769,13.4329182 Z M17.9807692,13.4327072 C17.9807692,15.7210426 18.8730013,17.8730988 20.4926122,19.4906322 C22.112223,21.1091287 24.2659199,22 26.5569944,22 C28.848069,22 31.0012838,21.1091287 32.6213767,19.4906322 C32.9407848,19.1676838 33.2339781,18.8198698 33.4981839,18.4504797 L33.4981839,21.1751013 L35.1153846,21.1751013 L35.1153846,5.75773037 L33.4981839,5.75773037 L33.4981839,8.41493467 C33.2337103,8.04575232 32.9405343,7.69795887 32.6213767,7.37478221 C31.016379,5.76296458 28.8327503,4.85940553 26.5569944,4.86538462 C21.8278271,4.86493284 17.9807692,8.70868143 17.9807692,13.4327072 L17.9807692,13.4327072 Z M0,15.9205079 C0,17.3716402 0.620692305,18.8523388 1.6596668,19.8838206 C2.93374473,21.1475408 4.772744,21.7884615 7.12522072,21.7884615 C10.2733952,21.7884615 12.2498987,20.8289879 13.1677156,18.8566307 C13.45859,18.2314468 13.8321593,16.6463125 13.1662732,15.1179263 C12.670104,13.9805782 11.6921891,13.1431847 10.3378202,12.6953986 C9.18622353,12.3128891 8.03067749,11.9421781 6.87136671,11.5833248 C6.37028452,11.4318767 5.87225599,11.2706616 5.37757043,11.099773 C3.98521961,10.612883 3.44145276,9.92570536 3.55876409,8.80314031 C3.72030755,7.25424853 5.38430141,6.25376362 7.79783771,6.25376362 C10.3306085,6.25376362 11.5945899,7.77261225 11.6979585,9.30719777 L13.3076238,9.3339028 C13.1508882,7.00818074 11.2080395,4.65384615 7.79783771,4.65384615 C4.55110252,4.65384615 2.20247207,6.25519425 1.95390668,8.63814137 C1.81832556,9.94096538 2.20872227,11.6872836 4.84053456,12.6086072 C5.37372416,12.7950655 5.80017968,12.9271601 6.3901018,13.1107572 C7.10118152,13.3315505 8.07573094,13.6343665 9.82818907,14.2132934 C10.7479291,14.5170632 11.3729485,15.0359038 11.6859389,15.7531246 C12.1061443,16.7168901 11.8792141,17.8089351 11.7032472,18.1861436 C11.4484316,18.7335968 10.7714875,20.1885441 7.12570151,20.1885441 C5.21650775,20.1885441 3.76117421,19.7049923 2.80056752,18.7521949 C1.6990911,17.659673 1.61351152,16.3091615 1.61351152,15.9205079 L0,15.9205079 L0,15.9205079 Z"/></svg>